<?xml version="1.0" encoding="UTF-8"?>
<svg xmlns="http://www.w3.org/2000/svg" version="1.1" viewBox="0 0 300 300">
  <defs>
    <style>
      .st0 {
        fill: #fff;
      }

      .st1 {
        fill: #ee5257;
      }
    </style>
  </defs>
  <g id="Calque_2">
    <circle class="st1" cx="150" cy="150" r="145.2"/>
  </g>
  <g id="Calque_1">
    <path class="st0" d="M196.9,55.1h-31.2v189.9h31.2c26.6,0,48.3-21.7,48.3-48.3v-93.3c0-26.6-21.7-48.3-48.3-48.3ZM203.1,178.8c-10.6,0-19.1-8.6-19.1-19.1s8.6-19.1,19.1-19.1,19.1,8.6,19.1,19.1-8.6,19.1-19.1,19.1ZM54.8,103.4v93.3c0,26.6,21.7,48.3,48.3,48.3h43.8V55.1h-43.8c-26.6,0-48.3,21.7-48.3,48.3ZM131.4,70.7v158.8h-27.6c-18.5,0-33.6-15.1-33.6-33.6v-91.6c0-18.5,15.1-33.6,33.6-33.6h27.6ZM102.3,131.4c10.6,0,19.1-8.6,19.1-19.1s-8.6-19.1-19.1-19.1-19.1,8.6-19.1,19.1,8.6,19.1,19.1,19.1Z"/>
  </g>
</svg>
